HIERARCHY
ROOT Hips
{
	OFFSET -0.179506 -22.333345 2.821913
	CHANNELS 6 Xposition Yposition Zposition Zrotation Yrotation Xrotation 
	JOINT LeftUpLeg
	{
		OFFSET 6.951974 -9.140623 -0.681533
		CHANNELS 3 Zrotation Yrotation Xrotation
		JOINT LeftLeg
		{
			OFFSET 3.427654 -37.519855 -0.449580
			CHANNELS 3 Zrotation Yrotation Xrotation
			JOINT LeftFoot
			{
				OFFSET -1.359570 -39.796059 -4.369333
				CHANNELS 3 Zrotation Yrotation Xrotation
				JOINT LeftToe
				{
					OFFSET 2.635814 -5.579078 11.928840
					CHANNELS 3 Zrotation Yrotation Xrotation
					End Site
					{
						OFFSET 0.000000 0.000000 0.000000
					}
				}
			}
		}
	}
	JOINT RightUpLeg
	{
		OFFSET -6.767048 -9.052170 -0.431982
		CHANNELS 3 Zrotation Yrotation Xrotation
		JOINT RightLeg
		{
			OFFSET -3.829005 -38.256897 -0.885003
			CHANNELS 3 Zrotation Yrotation Xrotation
			JOINT RightFoot
			{
				OFFSET 1.577377 -39.841461 -4.231180
				CHANNELS 3 Zrotation Yrotation Xrotation
				JOINT RightToe
				{
					OFFSET -2.537174 -4.814398 12.334795
					CHANNELS 3 Zrotation Yrotation Xrotation
					End Site
					{
						OFFSET 0.000000 0.000000 0.000000
					}
				}
			}
		}
	}
	JOINT Spine
	{
		OFFSET -0.253288 10.896323 -2.669631
		CHANNELS 3 Zrotation Yrotation Xrotation
		JOINT Spine1
		{
			OFFSET 0.548704 13.518043 0.109247
			CHANNELS 3 Zrotation Yrotation Xrotation
			JOINT Spine2
			{
				OFFSET 0.145701 5.292222 2.542457
				CHANNELS 3 Zrotation Yrotation Xrotation
				JOINT Neck
				{
					OFFSET -0.277840 21.387037 -4.285703
					CHANNELS 3 Zrotation Yrotation Xrotation
					JOINT Head
					{
						OFFSET 0.515184 6.496960 5.134897
						CHANNELS 3 Zrotation Yrotation Xrotation
						End Site
						{
							OFFSET 0.000000 0.000000 0.000000
						}
					}
				}
				JOINT LeftShoulder
				{
					OFFSET 7.884473 12.174932 -3.408961
					CHANNELS 3 Zrotation Yrotation Xrotation
					JOINT LeftArm
					{
						OFFSET 9.097692 3.046888 -0.886815
						CHANNELS 3 Zrotation Yrotation Xrotation
						JOINT LeftForeArm
						{
							OFFSET 25.961220 -1.277207 -2.745643
							CHANNELS 3 Zrotation Yrotation Xrotation
							JOINT LeftHand
							{
								OFFSET 24.923361 0.898606 -0.117091
								CHANNELS 3 Zrotation Yrotation Xrotation
								End Site
								{
									OFFSET 0.000000 0.000000 0.000000
								}
							}
						}
					}
				}
				JOINT RightShoulder
				{
					OFFSET -8.175920 11.883285 -3.861528
					CHANNELS 3 Zrotation Yrotation Xrotation
					JOINT RightArm
					{
						OFFSET -9.601238 3.255117 -0.914307
						CHANNELS 3 Zrotation Yrotation Xrotation
						JOINT RightForeArm
						{
							OFFSET -25.374195 -1.332924 -2.140099
							CHANNELS 3 Zrotation Yrotation Xrotation
							JOINT RightHand
							{
								OFFSET -25.529810 0.777228 -0.555919
								CHANNELS 3 Zrotation Yrotation Xrotation
								End Site
								{
									OFFSET 0.000000 0.000000 0.000000
								}
							}
						}
					}
				}
			}
		}
	}
}
MOTION
Frames: 11
Frame Time: 0.033333
149.275345 -148.652924 11.231111 -136.131566 -7.312744 178.199339 1.031144 -4.678548 -5.530141 -9.594396 -15.557521 17.492642 -0.382195 6.202843 -13.597858 nan nan nan -3.299730 0.734561 -6.333031 7.433870 4.906663 18.994069 5.177137 -0.922160 -15.617470 nan nan nan -1.388473 -0.075443 0.115024 2.356801 -2.631726 3.214772 0.315511 -1.460145 -2.953777 -1.084777 -5.283292 -15.381356 8.194216 -4.871179 -31.897172 -17.229170 13.533659 0.844323 -24.947797 14.194113 5.714273 160.489980 -55.141427 -129.590334 53.768355 -32.001037 -14.245559 15.190516 -13.254919 -0.127500 33.880863 -19.423526 -6.609046 -164.068144 54.483690 -139.841913 -53.411015 27.197178 -24.858524 
149.258026 -148.631165 11.225038 -136.206548 -7.332344 178.271592 1.058459 -4.693315 -5.578567 -9.675843 -15.250854 17.490340 -0.503290 6.016130 -12.989871 nan nan nan -3.391299 0.817310 -6.316091 7.367332 4.714838 18.940256 5.008082 -0.819991 -15.881655 nan nan nan -1.425414 -0.196941 -0.099719 2.258508 -2.636295 3.195705 0.159211 -1.469701 -2.897832 -0.876102 -5.339303 -14.754409 8.297915 -4.840784 -32.292519 -16.398096 13.869490 0.831105 -25.682216 13.818882 5.834820 160.702976 -55.485371 -129.478056 53.549561 -32.076226 -14.354035 14.292743 -13.698917 -0.699377 34.881091 -18.778631 -6.003489 -164.743114 55.497856 -139.671430 -53.332914 27.423946 -24.277518 
149.480682 -148.561340 11.580019 -136.685444 -6.205500 179.221683 0.981832 -4.546293 -6.806150 -9.927175 -14.217068 17.563609 -0.507291 5.715989 -12.420300 nan nan nan -3.879207 1.409565 -8.526543 7.363627 4.380220 20.500744 5.123207 -0.072125 -16.358264 nan nan nan -2.068025 -0.301854 -0.399454 2.060022 -2.114936 3.606441 0.081352 -1.020696 -4.003951 -0.545658 -5.173683 -14.826333 8.843843 -5.256363 -32.440572 -15.981131 14.277026 0.809550 -25.214307 13.834428 6.354807 159.988224 -55.154436 -129.152547 53.764309 -32.239390 -14.288083 14.517515 -13.808883 -0.604952 35.257338 -18.483742 -5.382967 -164.572807 55.499784 -139.004361 -54.341109 27.787364 -23.986154 
149.473862 -148.554504 11.599545 -136.728142 -6.200609 179.359417 0.928878 -4.608286 -6.954027 -9.942776 -14.270755 17.549161 -0.473324 5.662594 -12.597352 nan nan nan -3.937471 1.426546 -8.706765 7.340683 4.319795 20.563554 5.225206 -0.042318 -16.439380 nan nan nan -2.128117 -0.321843 -0.443738 2.081836 -2.127950 3.519337 0.084582 -1.012713 -4.165496 -0.567702 -5.209733 -14.716822 8.844774 -5.220681 -32.291652 -16.065100 14.347982 0.844414 -25.100862 13.860408 6.438904 159.931659 -55.143952 -129.140430 53.512705 -32.400711 -14.116255 14.603608 -13.826746 -0.593465 35.084263 -18.461765 -5.298282 -164.880953 55.600529 -138.871954 -54.133489 28.177358 -23.227705 
149.467636 -148.544495 11.613831 -136.742995 -6.230221 179.355603 0.952808 -4.607873 -7.009309 -10.067893 -14.276669 17.646501 -0.494420 5.568057 -12.698447 nan nan nan -3.950369 1.416394 -8.706881 7.351872 4.289488 20.587010 5.277242 -0.050678 -16.426861 nan nan nan -2.226008 -0.295673 -0.350518 2.107826 -2.103312 3.442580 0.114062 -0.998024 -4.184161 -0.529791 -5.203112 -14.799851 8.866143 -5.249457 -32.283430 -16.079487 14.361974 0.770722 -25.090771 13.745138 6.545050 159.961579 -55.226227 -129.182359 53.530418 -32.487498 -14.301649 14.727450 -13.883558 -0.692450 34.964930 -18.547904 -5.136547 -164.875383 55.895238 -138.788375 -53.980973 28.272158 -23.054296 
149.334778 -148.628387 11.193062 -136.471102 -5.879442 179.043955 1.271979 -3.478149 -6.513912 -10.524059 -14.846427 17.917215 -1.193467 5.120397 -12.458034 nan nan nan -3.821310 1.395710 -7.902698 7.512364 4.551023 20.128080 5.683444 0.420397 -16.600482 nan nan nan -2.162912 0.228225 -1.611724 2.494921 -2.511988 6.091451 0.594994 -1.581004 -5.214251 -0.749061 -5.205632 -14.769915 8.452705 -4.515217 -32.988357 -16.678109 10.462137 4.325770 -28.084443 19.356599 4.923259 158.327934 -52.329720 -126.343752 63.999614 -32.463183 -17.699950 14.663206 -11.581954 0.570561 35.051712 -20.881112 -5.188230 -164.874993 60.607304 -133.700598 -71.037864 28.818914 -23.774637 
149.307449 -148.681656 11.157870 -136.701379 -5.986550 178.891262 1.138275 -4.476496 -6.051887 -10.416600 -14.032876 17.403592 -1.239116 4.717866 -11.955719 nan nan nan -4.249139 1.098837 -7.529845 7.283083 3.916247 20.090137 6.135100 1.555888 -16.325347 nan nan nan -1.954289 0.042725 -0.826172 2.267729 -2.429017 4.822734 0.216983 -1.009452 -4.405163 -1.162456 -6.019421 -15.279536 8.929027 -4.696220 -32.264099 -14.369183 11.132063 4.937459 -30.534417 17.170045 4.640571 157.925764 -53.021886 -126.067668 58.777287 -34.639867 -15.265311 15.153772 -13.028863 0.419363 33.434806 -19.449062 -8.691423 -171.113055 59.122017 -134.882652 -55.732465 39.197140 -2.902448 
149.406128 -148.602188 11.301363 -136.713734 -5.384195 179.125701 1.389091 -4.311379 -6.389600 -10.654803 -13.555240 17.442410 -1.170021 4.738767 -11.818184 nan nan nan -4.188987 1.495433 -8.237124 7.222221 3.900457 20.653923 6.227599 1.737939 -16.391953 nan nan nan -2.412667 0.198703 -1.066261 2.408801 -1.995693 4.980388 0.551355 -0.843770 -4.350651 -0.909636 -5.645375 -15.149096 8.705481 -5.057850 -32.584457 -13.520066 11.191074 4.543351 -31.787196 16.686429 5.141258 158.036272 -53.278705 -125.377075 58.430046 -34.020065 -15.256199 14.794595 -13.060275 0.231055 34.169834 -19.389370 -8.250845 -169.298224 58.883059 -133.654239 -55.086565 37.331439 -4.862460 
149.406937 -148.576019 11.304832 -136.679524 -5.289068 179.183714 1.385904 -4.338818 -6.461820 -10.543475 -13.470651 17.506263 -1.210878 4.825024 -11.691474 nan nan nan -4.183434 1.552354 -8.294058 7.201379 3.868766 20.675391 6.309843 1.845173 -16.543266 nan nan nan -2.481931 0.297890 -1.223502 2.500973 -1.958014 5.009697 0.711158 -0.841091 -4.296027 -1.049973 -5.617322 -14.812023 8.687847 -5.038331 -32.870971 -13.478526 11.042730 4.526944 -32.137840 16.770313 5.155764 158.239686 -53.320795 -125.334714 58.854119 -34.028679 -15.358351 14.690127 -12.986162 0.363050 34.217752 -19.590757 -8.336256 -169.995148 58.790987 -133.902268 -55.631461 37.864880 -4.409904 
149.420670 -148.553970 11.310679 -136.698772 -5.221535 179.246647 1.365633 -4.338940 -6.531909 -10.495682 -13.419152 17.533047 -1.211503 4.910637 -11.662729 nan nan nan -4.218741 1.537709 -8.372216 7.189536 3.878595 20.749034 6.359621 1.861240 -16.705003 nan nan nan -2.468814 0.328123 -1.260997 2.489861 -1.972646 4.990187 0.709147 -0.844184 -4.315439 -1.105086 -5.585142 -14.716647 8.748940 -4.992142 -32.887808 -13.529493 11.057204 4.560958 -32.023035 16.860674 5.040070 158.439571 -53.239413 -125.557234 58.870416 -34.150668 -14.926387 14.737846 -12.989161 0.530678 34.196116 -19.608274 -8.521692 -170.923803 58.742942 -134.371961 -55.846595 38.575273 -3.267075 
149.482010 -148.516266 11.334884 -136.992658 -5.188507 179.248429 1.492977 -4.758742 -6.612535 -11.025142 -12.512587 17.529181 -1.003238 4.371985 -10.830329 nan nan nan -4.649235 1.727958 -8.276530 7.177151 3.358907 20.697298 6.423917 2.391965 -16.675784 nan nan nan -2.757591 0.421032 -1.566933 2.352218 -2.096379 5.936938 0.592055 -0.842012 -4.565569 -0.953249 -5.336366 -15.648532 9.027148 -5.260599 -32.210041 -13.518170 10.985613 3.968451 -31.750611 17.176727 5.727912 158.504516 -52.668980 -128.141754 56.232478 -34.088752 -11.449044 15.217733 -12.777901 0.283474 34.799998 -20.355123 -6.334933 -171.959521 54.756164 -143.746865 -48.373724 34.137957 -4.950911 
